<svg xmlns="http://www.w3.org/2000/svg" xmlns:xlink="http://www.w3.org/1999/xlink" width="500" zoomAndPan="magnify" viewBox="0 0 375 374.999991" height="500" preserveAspectRatio="xMidYMid meet" version="1.0"><defs><g/><clipPath id="4a34601222"><path d="M 281.699219 199.121094 L 296.847656 199.121094 L 296.847656 214.273438 L 281.699219 214.273438 Z M 281.699219 199.121094 " clip-rule="nonzero"/></clipPath><clipPath id="a41ede38ff"><path d="M 289.273438 199.121094 C 285.089844 199.121094 281.699219 202.515625 281.699219 206.699219 C 281.699219 210.882812 285.089844 214.273438 289.273438 214.273438 C 293.457031 214.273438 296.847656 210.882812 296.847656 206.699219 C 296.847656 202.515625 293.457031 199.121094 289.273438 199.121094 Z M 289.273438 199.121094 " clip-rule="nonzero"/></clipPath><clipPath id="f9667c3f55"><path d="M 0.699219 0.121094 L 15.847656 0.121094 L 15.847656 15.273438 L 0.699219 15.273438 Z M 0.699219 0.121094 " clip-rule="nonzero"/></clipPath><clipPath id="2f00b6b7a4"><path d="M 8.273438 0.121094 C 4.089844 0.121094 0.699219 3.515625 0.699219 7.699219 C 0.699219 11.882812 4.089844 15.273438 8.273438 15.273438 C 12.457031 15.273438 15.847656 11.882812 15.847656 7.699219 C 15.847656 3.515625 12.457031 0.121094 8.273438 0.121094 Z M 8.273438 0.121094 " clip-rule="nonzero"/></clipPath><clipPath id="b124e6790a"><rect x="0" width="16" y="0" height="16"/></clipPath></defs><g clip-path="url(#4a34601222)"><g clip-path="url(#a41ede38ff)"><g transform="matrix(1, 0, 0, 1, 281, 199)"><g clip-path="url(#b124e6790a)"><g clip-path="url(#f9667c3f55)"><g clip-path="url(#2f00b6b7a4)"><path fill="#0f62fe" d="M 0.699219 0.121094 L 15.847656 0.121094 L 15.847656 15.273438 L 0.699219 15.273438 Z M 0.699219 0.121094 " fill-opacity="1" fill-rule="nonzero"/></g></g></g></g></g></g><g fill="#ffffff" fill-opacity="1"><g transform="translate(78.767497, 202.260748)"><g><path d="M 26.625 -27.3125 C 27.289062 -26.570312 27.5 -25.773438 27.25 -24.921875 C 27.144531 -24.535156 26.957031 -24.175781 26.6875 -23.84375 C 26.425781 -23.507812 26.15625 -23.179688 25.875 -22.859375 C 25.695312 -22.679688 25.519531 -22.503906 25.34375 -22.328125 C 25.164062 -22.148438 24.988281 -21.972656 24.8125 -21.796875 C 24.53125 -21.484375 24.148438 -21.378906 23.671875 -21.484375 C 23.203125 -21.585938 22.726562 -21.765625 22.25 -22.015625 C 21.78125 -22.265625 21.367188 -22.441406 21.015625 -22.546875 C 20.234375 -22.828125 19.460938 -23.070312 18.703125 -23.28125 C 17.941406 -23.5 17.160156 -23.660156 16.359375 -23.765625 C 16.179688 -23.796875 16.007812 -23.8125 15.84375 -23.8125 C 15.6875 -23.8125 15.519531 -23.8125 15.34375 -23.8125 C 13.613281 -23.8125 12.066406 -23.289062 10.703125 -22.25 C 9.347656 -21.207031 8.425781 -19.820312 7.9375 -18.09375 C 7.40625 -16.226562 7.457031 -14.394531 8.09375 -12.59375 C 8.726562 -10.789062 9.820312 -9.34375 11.375 -8.25 C 12.570312 -7.4375 14.125 -7.03125 16.03125 -7.03125 C 18.46875 -7.03125 20.425781 -7.613281 21.90625 -8.78125 C 22.613281 -9.34375 23.203125 -9.703125 23.671875 -9.859375 C 24.148438 -10.023438 24.726562 -9.703125 25.40625 -8.890625 C 25.757812 -8.535156 26.101562 -8.15625 26.4375 -7.75 C 26.769531 -7.34375 27.09375 -6.929688 27.40625 -6.515625 C 27.832031 -5.941406 27.90625 -5.390625 27.625 -4.859375 C 27.34375 -4.335938 26.863281 -3.847656 26.1875 -3.390625 C 25.519531 -2.929688 24.820312 -2.53125 24.09375 -2.1875 C 23.375 -1.851562 22.820312 -1.597656 22.4375 -1.421875 C 20.28125 -0.398438 18.023438 0.109375 15.671875 0.109375 C 13.335938 0.109375 11.113281 -0.390625 9 -1.390625 C 6.882812 -2.398438 4.992188 -3.820312 3.328125 -5.65625 C 1.921875 -7.320312 0.988281 -9.035156 0.53125 -10.796875 C 0.0703125 -12.554688 -0.078125 -14.28125 0.078125 -15.96875 C 0.234375 -17.664062 0.523438 -19.207031 0.953125 -20.59375 C 1.867188 -23.40625 3.359375 -25.660156 5.421875 -27.359375 C 7.484375 -29.054688 10.050781 -30.097656 13.125 -30.484375 C 14.144531 -30.585938 15.097656 -30.640625 15.984375 -30.640625 C 16.472656 -30.640625 17.191406 -30.578125 18.140625 -30.453125 C 19.097656 -30.328125 20.125 -30.132812 21.21875 -29.875 C 22.3125 -29.613281 23.351562 -29.269531 24.34375 -28.84375 C 25.332031 -28.414062 26.09375 -27.90625 26.625 -27.3125 Z M 26.625 -27.3125 "/></g></g></g><g fill="#ffffff" fill-opacity="1"><g transform="translate(106.656232, 202.260748)"><g><path d="M 0.046875 -15.34375 C 0.015625 -17.320312 0.40625 -19.289062 1.21875 -21.25 C 2.03125 -23.207031 3.160156 -24.925781 4.609375 -26.40625 C 5.984375 -27.820312 7.550781 -28.898438 9.3125 -29.640625 C 11.070312 -30.378906 12.890625 -30.75 14.765625 -30.75 C 14.941406 -30.75 15.125 -30.75 15.3125 -30.75 C 15.507812 -30.75 15.695312 -30.75 15.875 -30.75 C 15.875 -30.75 15.878906 -30.75 15.890625 -30.75 C 15.910156 -30.75 15.921875 -30.75 15.921875 -30.75 C 18.992188 -30.75 21.703125 -30.113281 24.046875 -28.84375 C 26.398438 -27.570312 28.242188 -25.804688 29.578125 -23.546875 C 30.921875 -21.285156 31.59375 -18.675781 31.59375 -15.71875 C 31.59375 -11.09375 30.144531 -7.335938 27.25 -4.453125 C 25.84375 -3.035156 24.160156 -1.945312 22.203125 -1.1875 C 20.242188 -0.425781 18.117188 -0.046875 15.828125 -0.046875 C 13.640625 -0.046875 11.597656 -0.441406 9.703125 -1.234375 C 7.816406 -2.035156 6.160156 -3.128906 4.734375 -4.515625 C 3.304688 -5.910156 2.175781 -7.535156 1.34375 -9.390625 C 0.519531 -11.242188 0.0859375 -13.226562 0.046875 -15.34375 Z M 15.671875 -24.453125 C 14.429688 -24.453125 13.226562 -24.050781 12.0625 -23.25 C 10.894531 -22.457031 9.929688 -21.4375 9.171875 -20.1875 C 8.421875 -18.9375 8.023438 -17.625 7.984375 -16.25 C 7.953125 -14.726562 8.203125 -13.257812 8.734375 -11.84375 C 9.265625 -10.4375 10.078125 -9.253906 11.171875 -8.296875 C 12.265625 -7.347656 13.617188 -6.785156 15.234375 -6.609375 C 17.035156 -6.429688 18.550781 -6.710938 19.78125 -7.453125 C 21.019531 -8.203125 21.972656 -9.21875 22.640625 -10.5 C 23.316406 -11.789062 23.691406 -13.203125 23.765625 -14.734375 C 23.835938 -16.273438 23.609375 -17.75 23.078125 -19.15625 C 22.546875 -20.570312 21.695312 -21.765625 20.53125 -22.734375 C 19.363281 -23.703125 17.882812 -24.273438 16.09375 -24.453125 C 16.019531 -24.453125 15.945312 -24.453125 15.875 -24.453125 C 15.800781 -24.453125 15.734375 -24.453125 15.671875 -24.453125 Z M 15.671875 -24.453125 "/></g></g></g><g fill="#ffffff" fill-opacity="1"><g transform="translate(138.355346, 202.260748)"><g><path d="M 21.28125 -2.21875 C 21.132812 -1.6875 20.882812 -1.226562 20.53125 -0.84375 C 19.96875 -0.207031 19.226562 0.0703125 18.3125 0 C 17.394531 -0.0703125 16.566406 -0.109375 15.828125 -0.109375 C 14.835938 -0.109375 14.039062 -0.148438 13.4375 -0.234375 C 12.84375 -0.328125 12.34375 -0.554688 11.9375 -0.921875 C 11.53125 -1.296875 11.125 -1.90625 10.71875 -2.75 C 10.3125 -3.59375 9.789062 -4.773438 9.15625 -6.296875 C 8.59375 -8.273438 7.859375 -10.25 6.953125 -12.21875 C 6.054688 -14.195312 5.222656 -16.15625 4.453125 -18.09375 C 4.335938 -18.375 4.09375 -18.9375 3.71875 -19.78125 C 3.351562 -20.632812 2.929688 -21.609375 2.453125 -22.703125 C 1.984375 -23.796875 1.535156 -24.878906 1.109375 -25.953125 C 0.679688 -27.035156 0.367188 -27.960938 0.171875 -28.734375 C -0.015625 -29.515625 -0.0195312 -29.972656 0.15625 -30.109375 C 0.300781 -30.253906 0.46875 -30.332031 0.65625 -30.34375 C 0.851562 -30.363281 1.039062 -30.375 1.21875 -30.375 C 2.207031 -30.34375 3.25 -30.359375 4.34375 -30.421875 C 5.4375 -30.492188 6.457031 -30.410156 7.40625 -30.171875 C 7.582031 -30.128906 7.820312 -29.957031 8.125 -29.65625 C 8.425781 -29.363281 8.644531 -29.039062 8.78125 -28.6875 C 9.488281 -26.957031 10.191406 -25.203125 10.890625 -23.421875 C 11.597656 -21.640625 12.304688 -19.8125 13.015625 -17.9375 C 13.117188 -17.625 13.296875 -17.15625 13.546875 -16.53125 C 13.796875 -15.914062 14.085938 -15.289062 14.421875 -14.65625 C 14.753906 -14.019531 15.101562 -13.5 15.46875 -13.09375 C 15.84375 -12.6875 16.222656 -12.535156 16.609375 -12.640625 C 17.003906 -12.753906 17.378906 -13.25 17.734375 -14.125 C 18.710938 -16.5625 19.675781 -18.992188 20.625 -21.421875 C 21.582031 -23.859375 22.554688 -26.28125 23.546875 -28.6875 C 23.648438 -28.894531 23.753906 -29.101562 23.859375 -29.3125 C 23.972656 -29.53125 24.097656 -29.726562 24.234375 -29.90625 C 24.453125 -30.113281 24.875 -30.296875 25.5 -30.453125 C 26.132812 -30.609375 26.847656 -30.695312 27.640625 -30.71875 C 28.441406 -30.738281 29.191406 -30.695312 29.890625 -30.59375 C 30.597656 -30.488281 31.144531 -30.285156 31.53125 -29.984375 C 31.925781 -29.679688 32.019531 -29.265625 31.8125 -28.734375 C 30.082031 -24.398438 28.351562 -20.050781 26.625 -15.6875 C 24.894531 -11.332031 23.179688 -6.984375 21.484375 -2.640625 C 21.410156 -2.429688 21.34375 -2.289062 21.28125 -2.21875 Z M 21.28125 -2.21875 "/></g></g></g><g fill="#ffffff" fill-opacity="1"><g transform="translate(170.371998, 202.260748)"><g><path d="M 29.6875 -13.4375 C 29.257812 -13.082031 28.628906 -12.84375 27.796875 -12.71875 C 26.972656 -12.601562 26.09375 -12.546875 25.15625 -12.546875 C 24.226562 -12.546875 23.359375 -12.5625 22.546875 -12.59375 C 21.734375 -12.625 21.113281 -12.640625 20.6875 -12.640625 C 18.851562 -12.609375 17.035156 -12.582031 15.234375 -12.5625 C 13.441406 -12.550781 11.628906 -12.546875 9.796875 -12.546875 C 9.222656 -12.546875 8.859375 -12.367188 8.703125 -12.015625 C 8.546875 -11.660156 8.53125 -11.257812 8.65625 -10.8125 C 8.78125 -10.375 8.945312 -10 9.15625 -9.6875 C 9.894531 -8.726562 10.816406 -7.957031 11.921875 -7.375 C 13.035156 -6.800781 14.195312 -6.441406 15.40625 -6.296875 C 16.738281 -6.160156 17.851562 -6.347656 18.75 -6.859375 C 19.65625 -7.367188 20.671875 -7.90625 21.796875 -8.46875 C 22.328125 -8.75 22.691406 -8.925781 22.890625 -9 C 23.085938 -9.070312 23.414062 -8.910156 23.875 -8.515625 C 24.363281 -8.128906 24.828125 -7.597656 25.265625 -6.921875 C 25.710938 -6.253906 26.144531 -5.675781 26.5625 -5.1875 C 27.019531 -4.582031 27 -4.015625 26.5 -3.484375 C 26.007812 -2.960938 25.253906 -2.476562 24.234375 -2.03125 C 23.210938 -1.59375 22.101562 -1.210938 20.90625 -0.890625 C 19.707031 -0.578125 18.617188 -0.332031 17.640625 -0.15625 C 16.671875 0.0195312 16.015625 0.109375 15.671875 0.109375 C 13.304688 0.109375 11.125 -0.359375 9.125 -1.296875 C 7.132812 -2.234375 5.429688 -3.503906 4.015625 -5.109375 C 2.609375 -6.710938 1.550781 -8.519531 0.84375 -10.53125 C 0.132812 -12.539062 -0.140625 -14.644531 0.015625 -16.84375 C 0.179688 -19.050781 0.863281 -21.195312 2.0625 -23.28125 C 2.976562 -24.90625 4.203125 -26.28125 5.734375 -27.40625 C 7.273438 -28.539062 8.96875 -29.378906 10.8125 -29.921875 C 12.664062 -30.472656 14.5625 -30.722656 16.5 -30.671875 C 18.445312 -30.617188 20.289062 -30.226562 22.03125 -29.5 C 23.78125 -28.78125 25.3125 -27.695312 26.625 -26.25 C 27.21875 -25.582031 27.785156 -24.742188 28.328125 -23.734375 C 28.878906 -22.734375 29.347656 -21.648438 29.734375 -20.484375 C 30.128906 -19.316406 30.367188 -18.175781 30.453125 -17.0625 C 30.546875 -15.957031 30.429688 -14.945312 30.109375 -14.03125 C 30.035156 -13.8125 29.894531 -13.613281 29.6875 -13.4375 Z M 21.703125 -18.953125 C 21.804688 -19.191406 21.835938 -19.453125 21.796875 -19.734375 C 21.765625 -20.160156 21.570312 -20.566406 21.21875 -20.953125 C 20.269531 -22.296875 19.035156 -23.285156 17.515625 -23.921875 C 15.992188 -24.554688 14.441406 -24.519531 12.859375 -23.8125 C 12.148438 -23.5 11.488281 -23.09375 10.875 -22.59375 C 10.257812 -22.101562 9.6875 -21.578125 9.15625 -21.015625 C 9.007812 -20.867188 8.863281 -20.707031 8.71875 -20.53125 C 8.582031 -20.351562 8.484375 -20.160156 8.421875 -19.953125 C 8.273438 -19.523438 8.34375 -19.132812 8.625 -18.78125 C 8.90625 -18.4375 9.257812 -18.265625 9.6875 -18.265625 L 20.484375 -18.265625 C 21.078125 -18.265625 21.484375 -18.492188 21.703125 -18.953125 Z M 21.703125 -18.953125 "/></g></g></g><g fill="#ffffff" fill-opacity="1"><g transform="translate(200.959753, 202.260748)"><g><path d="M 16.453125 -23.4375 C 16.273438 -23.332031 16.070312 -23.253906 15.84375 -23.203125 C 15.613281 -23.148438 15.394531 -23.085938 15.1875 -23.015625 C 14.800781 -22.984375 14.394531 -22.957031 13.96875 -22.9375 C 13.550781 -22.925781 13.144531 -22.863281 12.75 -22.75 C 11.90625 -22.507812 11.179688 -22.0625 10.578125 -21.40625 C 9.984375 -20.75 9.523438 -20.015625 9.203125 -19.203125 C 8.609375 -17.585938 8.226562 -15.828125 8.0625 -13.921875 C 7.90625 -12.015625 7.851562 -10.085938 7.90625 -8.140625 C 7.957031 -6.203125 7.96875 -4.367188 7.9375 -2.640625 L 7.9375 -1.859375 C 7.9375 -1.179688 7.679688 -0.707031 7.171875 -0.4375 C 6.660156 -0.175781 6.039062 -0.0351562 5.3125 -0.015625 C 4.59375 -0.00390625 3.890625 -0.0351562 3.203125 -0.109375 C 2.515625 -0.179688 1.976562 -0.234375 1.59375 -0.265625 C 1.238281 -0.265625 0.972656 -0.332031 0.796875 -0.46875 C 0.472656 -0.6875 0.265625 -1.09375 0.171875 -1.6875 C 0.0859375 -2.289062 0.046875 -2.960938 0.046875 -3.703125 C 0.046875 -4.441406 0.0703125 -5.144531 0.125 -5.8125 C 0.1875 -6.488281 0.21875 -6.984375 0.21875 -7.296875 C 0.28125 -8.535156 0.347656 -9.769531 0.421875 -11 C 0.492188 -12.238281 0.53125 -13.476562 0.53125 -14.71875 C 0.53125 -17.113281 0.53125 -19.519531 0.53125 -21.9375 C 0.53125 -24.351562 0.53125 -26.78125 0.53125 -29.21875 C 0.53125 -29.8125 0.671875 -30.1875 0.953125 -30.34375 C 1.234375 -30.507812 1.582031 -30.570312 2 -30.53125 C 2.425781 -30.5 2.851562 -30.5 3.28125 -30.53125 C 4.019531 -30.632812 4.742188 -30.6875 5.453125 -30.6875 C 6.898438 -30.6875 8.007812 -30.226562 8.78125 -29.3125 C 9.0625 -29 9.414062 -28.84375 9.84375 -28.84375 C 9.988281 -28.84375 10.113281 -28.859375 10.21875 -28.890625 C 10.675781 -28.929688 11.222656 -29.09375 11.859375 -29.375 C 12.492188 -29.65625 13.15625 -29.925781 13.84375 -30.1875 C 14.53125 -30.457031 15.171875 -30.632812 15.765625 -30.71875 C 16.367188 -30.8125 16.863281 -30.707031 17.25 -30.40625 C 17.632812 -30.101562 17.828125 -29.492188 17.828125 -28.578125 C 17.828125 -28.117188 17.816406 -27.648438 17.796875 -27.171875 C 17.785156 -26.691406 17.765625 -26.222656 17.734375 -25.765625 C 17.691406 -25.523438 17.648438 -25.265625 17.609375 -24.984375 C 17.578125 -24.703125 17.476562 -24.453125 17.3125 -24.234375 C 17.09375 -23.847656 16.804688 -23.582031 16.453125 -23.4375 Z M 16.453125 -23.4375 "/></g></g></g><g fill="#ffffff" fill-opacity="1"><g transform="translate(218.899167, 202.260748)"><g><path d="M 29.6875 -13.4375 C 29.257812 -13.082031 28.628906 -12.84375 27.796875 -12.71875 C 26.972656 -12.601562 26.09375 -12.546875 25.15625 -12.546875 C 24.226562 -12.546875 23.359375 -12.5625 22.546875 -12.59375 C 21.734375 -12.625 21.113281 -12.640625 20.6875 -12.640625 C 18.851562 -12.609375 17.035156 -12.582031 15.234375 -12.5625 C 13.441406 -12.550781 11.628906 -12.546875 9.796875 -12.546875 C 9.222656 -12.546875 8.859375 -12.367188 8.703125 -12.015625 C 8.546875 -11.660156 8.53125 -11.257812 8.65625 -10.8125 C 8.78125 -10.375 8.945312 -10 9.15625 -9.6875 C 9.894531 -8.726562 10.816406 -7.957031 11.921875 -7.375 C 13.035156 -6.800781 14.195312 -6.441406 15.40625 -6.296875 C 16.738281 -6.160156 17.851562 -6.347656 18.75 -6.859375 C 19.65625 -7.367188 20.671875 -7.90625 21.796875 -8.46875 C 22.328125 -8.75 22.691406 -8.925781 22.890625 -9 C 23.085938 -9.070312 23.414062 -8.910156 23.875 -8.515625 C 24.363281 -8.128906 24.828125 -7.597656 25.265625 -6.921875 C 25.710938 -6.253906 26.144531 -5.675781 26.5625 -5.1875 C 27.019531 -4.582031 27 -4.015625 26.5 -3.484375 C 26.007812 -2.960938 25.253906 -2.476562 24.234375 -2.03125 C 23.210938 -1.59375 22.101562 -1.210938 20.90625 -0.890625 C 19.707031 -0.578125 18.617188 -0.332031 17.640625 -0.15625 C 16.671875 0.0195312 16.015625 0.109375 15.671875 0.109375 C 13.304688 0.109375 11.125 -0.359375 9.125 -1.296875 C 7.132812 -2.234375 5.429688 -3.503906 4.015625 -5.109375 C 2.609375 -6.710938 1.550781 -8.519531 0.84375 -10.53125 C 0.132812 -12.539062 -0.140625 -14.644531 0.015625 -16.84375 C 0.179688 -19.050781 0.863281 -21.195312 2.0625 -23.28125 C 2.976562 -24.90625 4.203125 -26.28125 5.734375 -27.40625 C 7.273438 -28.539062 8.96875 -29.378906 10.8125 -29.921875 C 12.664062 -30.472656 14.5625 -30.722656 16.5 -30.671875 C 18.445312 -30.617188 20.289062 -30.226562 22.03125 -29.5 C 23.78125 -28.78125 25.3125 -27.695312 26.625 -26.25 C 27.21875 -25.582031 27.785156 -24.742188 28.328125 -23.734375 C 28.878906 -22.734375 29.347656 -21.648438 29.734375 -20.484375 C 30.128906 -19.316406 30.367188 -18.175781 30.453125 -17.0625 C 30.546875 -15.957031 30.429688 -14.945312 30.109375 -14.03125 C 30.035156 -13.8125 29.894531 -13.613281 29.6875 -13.4375 Z M 21.703125 -18.953125 C 21.804688 -19.191406 21.835938 -19.453125 21.796875 -19.734375 C 21.765625 -20.160156 21.570312 -20.566406 21.21875 -20.953125 C 20.269531 -22.296875 19.035156 -23.285156 17.515625 -23.921875 C 15.992188 -24.554688 14.441406 -24.519531 12.859375 -23.8125 C 12.148438 -23.5 11.488281 -23.09375 10.875 -22.59375 C 10.257812 -22.101562 9.6875 -21.578125 9.15625 -21.015625 C 9.007812 -20.867188 8.863281 -20.707031 8.71875 -20.53125 C 8.582031 -20.351562 8.484375 -20.160156 8.421875 -19.953125 C 8.273438 -19.523438 8.34375 -19.132812 8.625 -18.78125 C 8.90625 -18.4375 9.257812 -18.265625 9.6875 -18.265625 L 20.484375 -18.265625 C 21.078125 -18.265625 21.484375 -18.492188 21.703125 -18.953125 Z M 21.703125 -18.953125 "/></g></g></g><g fill="#ffffff" fill-opacity="1"><g transform="translate(249.486922, 202.260748)"><g><path d="M 2.171875 -7.296875 C 1.035156 -9.347656 0.351562 -11.429688 0.125 -13.546875 C -0.101562 -15.660156 0.046875 -17.695312 0.578125 -19.65625 C 1.109375 -21.613281 1.910156 -23.367188 2.984375 -24.921875 C 4.066406 -26.472656 5.332031 -27.691406 6.78125 -28.578125 C 8.75 -29.773438 10.953125 -30.375 13.390625 -30.375 C 13.878906 -30.375 14.503906 -30.265625 15.265625 -30.046875 C 16.023438 -29.835938 16.816406 -29.617188 17.640625 -29.390625 C 18.472656 -29.160156 19.269531 -29.03125 20.03125 -29 C 20.789062 -28.96875 21.429688 -29.109375 21.953125 -29.421875 C 22.484375 -29.742188 22.820312 -30.34375 22.96875 -31.21875 C 23.144531 -32.488281 23.179688 -33.863281 23.078125 -35.34375 C 22.972656 -36.832031 22.882812 -38.226562 22.8125 -39.53125 C 22.769531 -40.414062 22.941406 -40.976562 23.328125 -41.21875 C 23.722656 -41.46875 24.242188 -41.570312 24.890625 -41.53125 C 25.546875 -41.5 26.210938 -41.46875 26.890625 -41.4375 C 27.523438 -41.4375 28.125 -41.476562 28.6875 -41.5625 C 29.25 -41.65625 29.707031 -41.613281 30.0625 -41.4375 C 30.414062 -41.257812 30.59375 -40.726562 30.59375 -39.84375 C 30.59375 -36.601562 30.59375 -33.359375 30.59375 -30.109375 C 30.59375 -26.867188 30.59375 -23.625 30.59375 -20.375 C 30.550781 -17.375 30.617188 -14.363281 30.796875 -11.34375 C 30.972656 -8.332031 30.921875 -5.328125 30.640625 -2.328125 C 30.566406 -1.554688 30.316406 -1.050781 29.890625 -0.8125 C 29.472656 -0.582031 28.960938 -0.507812 28.359375 -0.59375 C 27.765625 -0.6875 27.148438 -0.835938 26.515625 -1.046875 C 25.878906 -1.265625 25.296875 -1.410156 24.765625 -1.484375 C 23.460938 -1.660156 22.242188 -1.675781 21.109375 -1.53125 C 19.984375 -1.394531 18.800781 -1.078125 17.5625 -0.578125 C 15.59375 0.160156 13.550781 0.28125 11.4375 -0.21875 C 9.488281 -0.632812 7.6875 -1.484375 6.03125 -2.765625 C 4.375 -4.054688 3.085938 -5.566406 2.171875 -7.296875 Z M 15.5625 -24.234375 C 14.21875 -24.234375 12.953125 -23.800781 11.765625 -22.9375 C 10.585938 -22.070312 9.628906 -20.953125 8.890625 -19.578125 C 8.148438 -18.203125 7.78125 -16.738281 7.78125 -15.1875 C 7.78125 -13.707031 8.140625 -12.304688 8.859375 -10.984375 C 9.585938 -9.660156 10.539062 -8.582031 11.71875 -7.75 C 12.90625 -6.925781 14.164062 -6.492188 15.5 -6.453125 L 15.71875 -6.453125 C 17.519531 -6.453125 19.070312 -7.109375 20.375 -8.421875 C 22.03125 -10.140625 22.859375 -12.410156 22.859375 -15.234375 C 22.859375 -17.847656 22.1875 -19.992188 20.84375 -21.671875 C 19.507812 -23.347656 17.785156 -24.203125 15.671875 -24.234375 Z M 15.5625 -24.234375 "/></g></g></g></svg>