<svg width="291" height="72" viewBox="0 0 291 72" fill="none" xmlns="http://www.w3.org/2000/svg">
<mask id="mask0_12_106" style="mask-type:luminance" maskUnits="userSpaceOnUse" x="270" y="51" width="21" height="21">
<path d="M270.551 51.295H290.749V71.4981H270.551V51.295Z" fill="white"/>
</mask>
<g mask="url(#mask0_12_106)">
<mask id="mask1_12_106" style="mask-type:luminance" maskUnits="userSpaceOnUse" x="270" y="51" width="21" height="21">
<path d="M280.65 51.295C275.072 51.295 270.551 55.821 270.551 61.3991C270.551 66.9773 275.072 71.4981 280.65 71.4981C286.229 71.4981 290.749 66.9773 290.749 61.3991C290.749 55.821 286.229 51.295 280.65 51.295Z" fill="white"/>
</mask>
<g mask="url(#mask1_12_106)">
<mask id="mask2_12_106" style="mask-type:luminance" maskUnits="userSpaceOnUse" x="269" y="51" width="22" height="22">
<path d="M290.952 51.1335H269.619V72.4668H290.952V51.1335Z" fill="white"/>
</mask>
<g mask="url(#mask2_12_106)">
<mask id="mask3_12_106" style="mask-type:luminance" maskUnits="userSpaceOnUse" x="270" y="51" width="21" height="21">
<path d="M270.551 51.295H290.749V71.4981H270.551V51.295Z" fill="white"/>
</mask>
<g mask="url(#mask3_12_106)">
<mask id="mask4_12_106" style="mask-type:luminance" maskUnits="userSpaceOnUse" x="270" y="51" width="21" height="21">
<path d="M280.65 51.295C275.072 51.295 270.551 55.821 270.551 61.3991C270.551 66.9773 275.072 71.4981 280.65 71.4981C286.229 71.4981 290.749 66.9773 290.749 61.3991C290.749 55.821 286.229 51.295 280.65 51.295Z" fill="white"/>
</mask>
<g mask="url(#mask4_12_106)">
<path d="M270.551 51.295H290.749V71.4981H270.551V51.295Z" fill="#0F62FE"/>
</g>
</g>
</g>
</g>
</g>
<path d="M35.4758 19.0645C36.3612 20.0541 36.6425 21.1166 36.3091 22.252C36.1685 22.7676 35.9185 23.2468 35.5591 23.6895C35.2102 24.1374 34.8508 24.5749 34.4758 25.002C34.2362 25.2416 34.0018 25.476 33.7675 25.7103C33.5279 25.9499 33.2935 26.1843 33.0591 26.4187C32.6841 26.8353 32.1737 26.976 31.5383 26.8353C30.9133 26.6999 30.2779 26.4603 29.6425 26.127C29.0175 25.7937 28.4654 25.5593 27.9966 25.4187C26.955 25.0437 25.9237 24.7208 24.9133 24.4395C23.8977 24.1478 22.856 23.9343 21.7883 23.7937C21.5487 23.752 21.3195 23.7312 21.1008 23.7312C20.8925 23.7312 20.6685 23.7312 20.4341 23.7312C18.1268 23.7312 16.0643 24.4291 14.2466 25.8145C12.4393 27.2051 11.2102 29.0541 10.5591 31.3562C9.85079 33.8458 9.9185 36.2885 10.7675 38.6895C11.6112 41.0958 13.0695 43.0228 15.1425 44.4812C16.7362 45.5645 18.8091 46.1062 21.3508 46.1062C24.6008 46.1062 27.2102 45.3301 29.1841 43.7728C30.1268 43.0228 30.9133 42.5437 31.5383 42.3353C32.1737 42.1166 32.9445 42.5437 33.8508 43.627C34.3195 44.101 34.7779 44.6062 35.2258 45.1478C35.6685 45.6895 36.1008 46.2416 36.5175 46.7937C37.0852 47.5593 37.1841 48.2937 36.8091 49.002C36.4341 49.6999 35.7935 50.351 34.8925 50.9603C34.0018 51.5749 33.0695 52.1062 32.1008 52.5645C31.1425 53.0124 30.4029 53.351 29.8925 53.5853C27.0175 54.9499 24.007 55.627 20.8716 55.627C17.757 55.627 14.7935 54.9603 11.9758 53.627C9.15287 52.2833 6.63204 50.3874 4.41329 47.9395C2.53829 45.7208 1.2935 43.4343 0.684121 41.0853C0.0695377 38.7416 -0.128379 36.4395 0.0799544 34.1895C0.288288 31.9291 0.673705 29.8718 1.24662 28.0228C2.46537 24.2728 4.45495 21.2676 7.20495 19.002C9.95495 16.7416 13.3768 15.351 17.4758 14.8353C18.8352 14.6999 20.106 14.627 21.2883 14.627C21.9393 14.627 22.8977 14.7103 24.1633 14.877C25.4393 15.0437 26.8091 15.3041 28.2675 15.6478C29.7258 15.9968 31.1112 16.4551 32.4341 17.0228C33.7518 17.5958 34.7675 18.2728 35.4758 19.0645Z" fill="white"/>
<path d="M37.2233 35.0229C37.1816 32.3875 37.7024 29.7625 38.7858 27.1479C39.8691 24.5385 41.3743 22.2468 43.3066 20.2729C45.1399 18.3875 47.2285 16.95 49.5774 15.9604C51.9212 14.976 54.3483 14.4812 56.8483 14.4812C57.0826 14.4812 57.3274 14.4812 57.5774 14.4812C57.8378 14.4812 58.0878 14.4812 58.3274 14.4812C58.3274 14.4812 58.3326 14.4812 58.3483 14.4812C58.3743 14.4812 58.3899 14.4812 58.3899 14.4812C62.4837 14.4812 66.0983 15.3302 69.2233 17.0229C72.3587 18.7208 74.817 21.075 76.5983 24.0854C78.3899 27.101 79.2858 30.5802 79.2858 34.5229C79.2858 40.6895 77.3535 45.7 73.4941 49.5437C71.6191 51.4343 69.3743 52.8875 66.7649 53.8979C64.1503 54.9135 61.317 55.4187 58.2649 55.4187C55.3483 55.4187 52.6243 54.8927 50.0983 53.8354C47.5826 52.7677 45.3743 51.3093 43.4733 49.4604C41.567 47.601 40.0618 45.4343 38.9524 42.9604C37.8535 40.4916 37.2753 37.8458 37.2233 35.0229ZM58.0566 22.877C56.4003 22.877 54.7962 23.4135 53.2441 24.4812C51.6868 25.5385 50.4003 26.8979 49.3899 28.5645C48.3899 30.2312 47.8587 31.9812 47.8066 33.8145C47.7649 35.8458 48.0983 37.8041 48.8066 39.6895C49.5149 41.5645 50.5983 43.1427 52.0566 44.4187C53.5149 45.6843 55.317 46.4343 57.4733 46.6687C59.8743 46.9083 61.8951 46.5333 63.5358 45.5437C65.1868 44.5437 66.4576 43.1895 67.3483 41.4812C68.2493 39.7625 68.7493 37.877 68.8483 35.8354C68.942 33.7833 68.6399 31.8145 67.9316 29.9395C67.2233 28.0541 66.0878 26.4604 64.5358 25.1687C62.9785 23.877 61.0045 23.1166 58.6191 22.877C58.5201 22.877 58.4212 22.877 58.3274 22.877C58.2285 22.877 58.1399 22.877 58.0566 22.877Z" fill="white"/>
<path d="M107.801 52.5228C107.603 53.2312 107.27 53.8458 106.801 54.3562C106.051 55.2051 105.062 55.5749 103.843 55.4812C102.619 55.3874 101.515 55.3353 100.53 55.3353C99.2075 55.3353 98.145 55.2833 97.3429 55.1687C96.5513 55.0437 95.8846 54.7416 95.3429 54.252C94.8013 53.752 94.2596 52.9395 93.7179 51.8145C93.1763 50.6895 92.4784 49.1166 91.6346 47.0853C90.8846 44.4499 89.9054 41.8145 88.6971 39.1895C87.4992 36.5541 86.3898 33.9395 85.3638 31.3562C85.2075 30.9812 84.8846 30.2312 84.3846 29.1062C83.895 27.9708 83.3325 26.6687 82.6971 25.2103C82.0721 23.752 81.4731 22.3093 80.9054 20.877C80.3325 19.4343 79.9159 18.1999 79.6554 17.1687C79.4054 16.127 79.4002 15.5176 79.6346 15.3353C79.8273 15.1426 80.0513 15.0385 80.3013 15.0228C80.5617 14.9968 80.8117 14.9812 81.0513 14.9812C82.369 15.0228 83.7596 15.002 85.2179 14.9187C86.6763 14.8249 88.0356 14.9343 89.3013 15.252C89.5356 15.3093 89.8534 15.5385 90.2596 15.9395C90.6606 16.3301 90.9523 16.7624 91.1346 17.2312C92.0773 19.5385 93.0148 21.877 93.9471 24.252C94.8898 26.627 95.8325 29.0645 96.7804 31.5645C96.9159 31.9812 97.1554 32.6062 97.4888 33.4395C97.8221 34.2624 98.2075 35.0958 98.6554 35.9395C99.0981 36.7885 99.5617 37.4812 100.051 38.0228C100.551 38.5645 101.056 38.7676 101.572 38.627C102.098 38.476 102.598 37.8145 103.072 36.6478C104.374 33.3978 105.661 30.1583 106.926 26.9187C108.202 23.6687 109.499 20.4395 110.822 17.2312C110.958 16.9551 111.098 16.6791 111.239 16.3978C111.39 16.1062 111.556 15.8458 111.739 15.6062C112.03 15.3301 112.593 15.0853 113.426 14.877C114.27 14.6687 115.223 14.5541 116.28 14.5228C117.348 14.4968 118.348 14.5541 119.28 14.6895C120.223 14.8301 120.952 15.101 121.468 15.502C121.994 15.9083 122.119 16.4603 121.843 17.1687C119.536 22.9499 117.228 28.7468 114.926 34.5645C112.619 40.3718 110.333 46.1687 108.072 51.9603C107.973 52.2416 107.885 52.4291 107.801 52.5228Z" fill="white"/>
<path d="M161.698 37.5645C161.126 38.0385 160.287 38.3562 159.178 38.5229C158.079 38.6791 156.907 38.752 155.657 38.752C154.417 38.752 153.261 38.7312 152.178 38.6895C151.094 38.6479 150.266 38.627 149.698 38.627C147.251 38.6687 144.829 38.7051 142.428 38.7312C140.037 38.7468 137.62 38.752 135.178 38.752C134.412 38.752 133.928 38.9916 133.719 39.4604C133.511 39.9343 133.49 40.4708 133.657 41.0645C133.823 41.6479 134.042 42.1479 134.323 42.5645C135.308 43.8458 136.537 44.8718 138.011 45.6479C139.495 46.4135 141.042 46.8926 142.657 47.0854C144.433 47.2676 145.917 47.0176 147.115 46.3354C148.323 45.6583 149.678 44.9395 151.178 44.1895C151.886 43.8145 152.37 43.5801 152.636 43.4812C152.896 43.3874 153.334 43.601 153.948 44.127C154.599 44.6426 155.219 45.351 155.803 46.252C156.396 47.1426 156.974 47.9135 157.532 48.5645C158.141 49.3718 158.115 50.127 157.448 50.8354C156.792 51.5333 155.787 52.1791 154.428 52.7729C153.063 53.3562 151.584 53.8666 149.99 54.2937C148.391 54.7104 146.938 55.0385 145.636 55.2729C144.344 55.5072 143.469 55.627 143.011 55.627C139.855 55.627 136.948 55.002 134.282 53.752C131.626 52.502 129.355 50.8093 127.469 48.6687C125.594 46.5333 124.183 44.1218 123.24 41.4395C122.292 38.7624 121.928 35.9551 122.136 33.0229C122.355 30.0801 123.266 27.2208 124.865 24.4395C126.084 22.2729 127.719 20.4395 129.761 18.9395C131.813 17.4291 134.073 16.3093 136.532 15.5854C139.001 14.851 141.532 14.5176 144.115 14.5854C146.709 14.6583 149.167 15.1791 151.49 16.1479C153.823 17.1062 155.865 18.5541 157.615 20.4812C158.407 21.3718 159.162 22.4916 159.886 23.8354C160.62 25.1687 161.245 26.6166 161.761 28.1687C162.287 29.726 162.605 31.2468 162.719 32.7312C162.844 34.2051 162.688 35.5541 162.261 36.7729C162.162 37.0645 161.974 37.3301 161.698 37.5645ZM151.053 30.2104C151.188 29.8926 151.23 29.5437 151.178 29.1687C151.136 28.601 150.876 28.0593 150.407 27.5437C149.141 25.752 147.495 24.4343 145.469 23.5854C143.438 22.7416 141.37 22.7885 139.261 23.7312C138.313 24.1479 137.433 24.6895 136.615 25.3562C135.792 26.0124 135.032 26.7104 134.323 27.4604C134.126 27.6583 133.933 27.8718 133.74 28.1062C133.558 28.3458 133.428 28.601 133.344 28.877C133.146 29.4499 133.24 29.9708 133.615 30.4395C133.99 30.8979 134.459 31.127 135.032 31.127H149.428C150.219 31.127 150.761 30.8249 151.053 30.2104Z" fill="white"/>
<path d="M184.836 24.2312C184.597 24.3718 184.326 24.4759 184.024 24.5437C183.716 24.6166 183.425 24.6999 183.149 24.7937C182.633 24.8353 182.091 24.8718 181.524 24.8978C180.966 24.9134 180.425 24.9968 179.899 25.1478C178.774 25.4707 177.805 26.0645 177.003 26.9395C176.211 27.8145 175.597 28.7937 175.17 29.877C174.378 32.0332 173.868 34.377 173.649 36.9187C173.44 39.4603 173.368 42.0332 173.44 44.627C173.508 47.2103 173.524 49.6582 173.482 51.9603V53.002C173.482 53.9082 173.138 54.5385 172.461 54.8978C171.779 55.2468 170.951 55.4343 169.982 55.4603C169.024 55.476 168.086 55.4343 167.17 55.3353C166.253 55.2416 165.534 55.1687 165.024 55.127C164.55 55.127 164.196 55.0385 163.961 54.8562C163.529 54.5645 163.253 54.0228 163.128 53.2312C163.013 52.4291 162.961 51.5332 162.961 50.5437C162.961 49.5593 162.993 48.6218 163.065 47.7312C163.149 46.8301 163.19 46.1687 163.19 45.752C163.274 44.101 163.362 42.4551 163.461 40.8145C163.555 39.1635 163.607 37.5124 163.607 35.8562C163.607 32.6635 163.607 29.4551 163.607 26.2312C163.607 23.0124 163.607 19.7728 163.607 16.5228C163.607 15.7312 163.795 15.2312 164.17 15.0228C164.545 14.8041 165.008 14.7207 165.565 14.7728C166.133 14.8145 166.701 14.8145 167.274 14.7728C168.258 14.6374 169.222 14.5645 170.17 14.5645C172.097 14.5645 173.576 15.1791 174.607 16.3978C174.982 16.8145 175.451 17.0228 176.024 17.0228C176.216 17.0228 176.383 17.002 176.524 16.9603C177.133 16.9082 177.862 16.6895 178.711 16.3145C179.555 15.9395 180.44 15.5801 181.357 15.2312C182.274 14.8718 183.128 14.6374 183.92 14.5228C184.722 14.3978 185.383 14.5384 185.899 14.9395C186.409 15.3457 186.67 16.1582 186.67 17.377C186.67 17.9916 186.654 18.6166 186.628 19.252C186.612 19.8926 186.586 20.5176 186.545 21.127C186.487 21.4499 186.43 21.7937 186.378 22.1687C186.336 22.5437 186.201 22.877 185.982 23.1687C185.69 23.6843 185.305 24.0384 184.836 24.2312Z" fill="white"/>
<path d="M226.401 37.5645C225.828 38.0385 224.99 38.3562 223.881 38.5229C222.782 38.6791 221.61 38.752 220.36 38.752C219.12 38.752 217.964 38.7312 216.881 38.6895C215.797 38.6479 214.969 38.627 214.401 38.627C211.953 38.6687 209.532 38.7051 207.131 38.7312C204.74 38.7468 202.323 38.752 199.881 38.752C199.115 38.752 198.631 38.9916 198.422 39.4604C198.214 39.9343 198.193 40.4708 198.36 41.0645C198.526 41.6479 198.745 42.1479 199.026 42.5645C200.011 43.8458 201.24 44.8718 202.714 45.6479C204.198 46.4135 205.745 46.8926 207.36 47.0854C209.136 47.2676 210.62 47.0176 211.818 46.3354C213.026 45.6583 214.381 44.9395 215.881 44.1895C216.589 43.8145 217.073 43.5801 217.339 43.4812C217.599 43.3874 218.037 43.601 218.651 44.127C219.302 44.6426 219.922 45.351 220.506 46.252C221.099 47.1426 221.677 47.9135 222.235 48.5645C222.844 49.3718 222.818 50.127 222.151 50.8354C221.495 51.5333 220.49 52.1791 219.131 52.7729C217.766 53.3562 216.287 53.8666 214.693 54.2937C213.094 54.7104 211.641 55.0385 210.339 55.2729C209.047 55.5072 208.172 55.627 207.714 55.627C204.558 55.627 201.651 55.002 198.985 53.752C196.328 52.502 194.058 50.8093 192.172 48.6687C190.297 46.5333 188.886 44.1218 187.943 41.4395C186.995 38.7624 186.631 35.9551 186.839 33.0229C187.058 30.0801 187.969 27.2208 189.568 24.4395C190.787 22.2729 192.422 20.4395 194.464 18.9395C196.516 17.4291 198.776 16.3093 201.235 15.5854C203.703 14.851 206.235 14.5176 208.818 14.5854C211.412 14.6583 213.87 15.1791 216.193 16.1479C218.526 17.1062 220.568 18.5541 222.318 20.4812C223.11 21.3718 223.865 22.4916 224.589 23.8354C225.323 25.1687 225.948 26.6166 226.464 28.1687C226.99 29.726 227.308 31.2468 227.422 32.7312C227.547 34.2051 227.391 35.5541 226.964 36.7729C226.865 37.0645 226.677 37.3301 226.401 37.5645ZM215.756 30.2104C215.891 29.8926 215.933 29.5437 215.881 29.1687C215.839 28.601 215.578 28.0593 215.11 27.5437C213.844 25.752 212.198 24.4343 210.172 23.5854C208.141 22.7416 206.073 22.7885 203.964 23.7312C203.016 24.1479 202.136 24.6895 201.318 25.3562C200.495 26.0124 199.735 26.7104 199.026 27.4604C198.828 27.6583 198.636 27.8718 198.443 28.1062C198.261 28.3458 198.131 28.601 198.047 28.877C197.849 29.4499 197.943 29.9708 198.318 30.4395C198.693 30.8979 199.162 31.127 199.735 31.127H214.131C214.922 31.127 215.464 30.8249 215.756 30.2104Z" fill="white"/>
<path d="M230.498 45.752C228.982 43.0176 228.07 40.2416 227.768 37.4187C227.466 34.601 227.664 31.8874 228.373 29.2728C229.081 26.6635 230.149 24.3249 231.581 22.252C233.024 20.1843 234.711 18.5593 236.643 17.377C239.268 15.7832 242.206 14.9812 245.456 14.9812C246.107 14.9812 246.94 15.127 247.956 15.4187C248.966 15.6999 250.024 15.9916 251.123 16.2937C252.232 16.601 253.294 16.7728 254.31 16.8145C255.32 16.8562 256.175 16.6687 256.873 16.252C257.581 15.8249 258.029 15.0228 258.227 13.8562C258.461 12.1635 258.508 10.3301 258.373 8.35616C258.232 6.37179 258.112 4.51241 258.018 2.77283C257.961 1.59575 258.19 0.845748 258.706 0.52283C259.232 0.189497 259.925 0.0540811 260.789 0.106164C261.664 0.14783 262.55 0.189497 263.456 0.231164C264.3 0.231164 265.102 0.179081 265.852 0.0644971C266.602 -0.0605029 267.211 -0.00321088 267.685 0.231164C268.154 0.470748 268.393 1.17908 268.393 2.35616C268.393 6.67908 268.393 11.002 268.393 15.3353C268.393 19.6582 268.393 23.9812 268.393 28.3145C268.336 32.3145 268.425 36.3301 268.664 40.3562C268.899 44.3718 268.831 48.377 268.456 52.377C268.357 53.4082 268.024 54.0801 267.456 54.3978C266.899 54.7051 266.216 54.8041 265.414 54.6895C264.623 54.5645 263.8 54.3666 262.956 54.0853C262.107 53.7937 261.331 53.601 260.623 53.502C258.883 53.2676 257.258 53.2468 255.748 53.4395C254.248 53.6218 252.669 54.0437 251.018 54.7103C248.393 55.6947 245.669 55.8562 242.852 55.1895C240.253 54.6374 237.852 53.502 235.643 51.7937C233.435 50.0749 231.716 48.0593 230.498 45.752ZM248.352 23.1687C246.56 23.1687 244.873 23.7468 243.289 24.8978C241.716 26.0541 240.44 27.5437 239.456 29.377C238.466 31.2103 237.977 33.1635 237.977 35.2312C237.977 37.2051 238.456 39.0749 239.414 40.8353C240.383 42.601 241.654 44.0385 243.227 45.1478C244.81 46.2468 246.487 46.8249 248.268 46.877H248.56C250.961 46.877 253.029 46.002 254.768 44.252C256.977 41.9603 258.081 38.9343 258.081 35.1687C258.081 31.6843 257.185 28.8249 255.393 26.5853C253.612 24.351 251.315 23.2103 248.498 23.1687H248.352Z" fill="white"/>
</svg>
